<svg width="16" height="16" viewBox="0 0 16 16" fill="none" xmlns="http://www.w3.org/2000/svg">
<path d="M6.66666 9.06662L10.6 5.13328C10.7222 5.01106 10.8778 4.94995 11.0667 4.94995C11.2555 4.94995 11.4111 5.01106 11.5333 5.13328C11.6555 5.25551 11.7167 5.41106 11.7167 5.59995C11.7167 5.78884 11.6555 5.9444 11.5333 6.06662L7.13333 10.4666C6.99999 10.6 6.84444 10.6666 6.66666 10.6666C6.48888 10.6666 6.33333 10.6 6.19999 10.4666L4.46666 8.73328C4.34444 8.61106 4.28333 8.45551 4.28333 8.26662C4.28333 8.07773 4.34444 7.92217 4.46666 7.79995C4.58888 7.67773 4.74444 7.61662 4.93333 7.61662C5.12221 7.61662 5.27777 7.67773 5.39999 7.79995L6.66666 9.06662Z" fill="#47A102"/>
</svg>
